<svg width="54" height="29" viewBox="0 0 54 29" version="1.1" xmlns="http://www.w3.org/2000/svg" xmlns:xlink="http://www.w3.org/1999/xlink">
<title>Logo</title>
<desc>Created using Figma</desc>
<g id="Canvas" transform="translate(3951 1211)">
<g id="Logo">
<g id="logo">
<g id="R CIP Z">
<use xlink:href="#path0_fill" transform="translate(-3943.92 -1200.88)" fill="#F2F2F2"/>
</g>
<g id="Group">
<g id="Line">
<use xlink:href="#path1_stroke" transform="translate(-3934.81 -1195.82)" fill="#F2C94C"/>
</g>
<g id="Line">
<use xlink:href="#path1_stroke" transform="translate(-3934.81 -1187.73)" fill="#F2C94C"/>
</g>
<g id="Line">
<use xlink:href="#path1_stroke" transform="translate(-3934.81 -1191.78)" fill="#F2C94C"/>
</g>
</g>
<g id="Group">
<g id="Line">
<use xlink:href="#path1_stroke" transform="translate(-3910.53 -1195.82)" fill="#F2C94C"/>
</g>
<g id="Line">
<use xlink:href="#path1_stroke" transform="translate(-3910.53 -1187.73)" fill="#F2C94C"/>
</g>
<g id="Line">
<use xlink:href="#path1_stroke" transform="translate(-3910.53 -1191.78)" fill="#F2C94C"/>
</g>
</g>
</g>
<g id="Group">
<g id="Union">
<use xlink:href="#path2_fill" transform="translate(-3951 -1211)" fill="#F2F2F2"/>
</g>
<g id="Ellipse">
<use xlink:href="#path3_fill" transform="translate(-3948.47 -1208.03)" fill="#6276E3"/>
</g>
</g>
</g>
</g>
<defs>
<path id="path0_fill" d="M 0.78 3.991C 0.979333 3.95633 1.19167 3.926 1.417 3.9C 1.651 3.86533 1.88067 3.83933 2.106 3.822C 2.34 3.80467 2.56533 3.79167 2.782 3.783C 2.99867 3.77433 3.198 3.77 3.38 3.77C 3.80467 3.77 4.22067 3.809 4.628 3.887C 5.044 3.965 5.41233 4.09933 5.733 4.29C 6.06233 4.48067 6.32233 4.745 6.513 5.083C 6.71233 5.41233 6.812 5.82833 6.812 6.331C 6.812 7.07633 6.63867 7.683 6.292 8.151C 5.94533 8.619 5.48167 8.944 4.901 9.126L 5.538 9.529L 7.618 13L 5.564 13L 3.497 9.438L 2.561 9.269L 2.561 13L 0.78 13L 0.78 3.991ZM 3.51 5.356C 3.328 5.356 3.146 5.36033 2.964 5.369C 2.79067 5.37767 2.65633 5.395 2.561 5.421L 2.561 8.06L 3.315 8.06C 3.809 8.06 4.20333 7.94733 4.498 7.722C 4.79267 7.49667 4.94 7.124 4.94 6.604C 4.94 6.214 4.81867 5.91067 4.576 5.694C 4.33333 5.46867 3.978 5.356 3.51 5.356ZM 21.1734 12.623C 20.8961 12.8223 20.5408 12.9653 20.1074 13.052C 19.6828 13.1387 19.2451 13.182 18.7944 13.182C 18.2484 13.182 17.7284 13.0997 17.2344 12.935C 16.7491 12.7617 16.3201 12.4887 15.9474 12.116C 15.5748 11.7347 15.2758 11.245 15.0504 10.647C 14.8338 10.0403 14.7254 9.308 14.7254 8.45C 14.7254 7.55733 14.8468 6.812 15.0894 6.214C 15.3408 5.60733 15.6614 5.122 16.0514 4.758C 16.4501 4.38533 16.8921 4.121 17.3774 3.965C 17.8628 3.80033 18.3481 3.718 18.8334 3.718C 19.3534 3.718 19.7911 3.75267 20.1464 3.822C 20.5104 3.89133 20.8094 3.97367 21.0434 4.069L 20.6924 5.577C 20.4931 5.48167 20.2548 5.41233 19.9774 5.369C 19.7088 5.32567 19.3794 5.304 18.9894 5.304C 18.2701 5.304 17.6894 5.55967 17.2474 6.071C 16.8141 6.58233 16.5974 7.37533 16.5974 8.45C 16.5974 8.918 16.6494 9.347 16.7534 9.737C 16.8574 10.1183 17.0134 10.4477 17.2214 10.725C 17.4381 10.9937 17.7024 11.206 18.0144 11.362C 18.3351 11.5093 18.7034 11.583 19.1194 11.583C 19.5094 11.583 19.8388 11.544 20.1074 11.466C 20.3761 11.388 20.6101 11.2883 20.8094 11.167L 21.1734 12.623ZM 22.4552 3.9L 24.2362 3.9L 24.2362 13L 22.4552 13L 22.4552 3.9ZM 25.9802 3.991C 26.3442 3.92167 26.7429 3.86967 27.1762 3.835C 27.6182 3.79167 28.0559 3.77 28.4892 3.77C 28.9399 3.77 29.3905 3.809 29.8412 3.887C 30.3005 3.95633 30.7122 4.10367 31.0762 4.329C 31.4402 4.54567 31.7349 4.85333 31.9602 5.252C 32.1942 5.642 32.3112 6.15333 32.3112 6.786C 32.3112 7.358 32.2115 7.84333 32.0122 8.242C 31.8129 8.632 31.5485 8.95267 31.2192 9.204C 30.8899 9.45533 30.5129 9.63733 30.0882 9.75C 29.6722 9.86267 29.2389 9.919 28.7882 9.919C 28.7449 9.919 28.6755 9.919 28.5802 9.919C 28.4849 9.919 28.3852 9.919 28.2812 9.919C 28.1772 9.91033 28.0732 9.90167 27.9692 9.893C 27.8739 9.88433 27.8045 9.87567 27.7612 9.867L 27.7612 13L 25.9802 13L 25.9802 3.991ZM 28.6322 5.304C 28.4589 5.304 28.2942 5.31267 28.1382 5.33C 27.9822 5.33867 27.8565 5.35167 27.7612 5.369L 27.7612 8.32C 27.7959 8.32867 27.8479 8.33733 27.9172 8.346C 27.9865 8.35467 28.0602 8.36333 28.1382 8.372C 28.2162 8.372 28.2899 8.372 28.3592 8.372C 28.4372 8.372 28.4935 8.372 28.5282 8.372C 28.7622 8.372 28.9919 8.35033 29.2172 8.307C 29.4512 8.26367 29.6592 8.18567 29.8412 8.073C 30.0232 7.95167 30.1662 7.787 30.2702 7.579C 30.3829 7.371 30.4392 7.098 30.4392 6.76C 30.4392 6.474 30.3872 6.24 30.2832 6.058C 30.1792 5.86733 30.0405 5.71567 29.8672 5.603C 29.7025 5.49033 29.5119 5.41233 29.2952 5.369C 29.0785 5.32567 28.8575 5.304 28.6322 5.304ZM 38.9067 11.414L 42.7547 6.032L 43.4307 5.486L 38.9067 5.486L 38.9067 3.9L 45.2117 3.9L 45.2117 5.486L 41.3377 10.92L 40.6747 11.414L 45.2117 11.414L 45.2117 13L 38.9067 13L 38.9067 11.414Z"/>
<path id="path1_stroke" d="M 0 0L 5.05882 0L 5.05882 -1L 0 -1L 0 0Z"/>
<path id="path2_fill" d="M 5.56471 14.4477C 7.55637 13.6711 10.1176 10.807 10.1176 7.81501C 10.1176 4.30818 7.29395 0 5.05883 0C 2.8237 0 0 4.30818 0 7.81501C 0 10.807 2.56128 13.6711 4.55294 14.4477L 4.04706 28.3294L 6.07059 28.3294L 5.56471 14.4477Z"/>
<path id="path3_fill" d="M 0.505882 4.11192C 0.505882 6.26997 1.29116 8.01941 1.01176 8.01941C 0.732374 8.01941 0 6.26997 0 4.11192C 0 1.95386 1.01176 -0.772466 1.51765 0.20442C 1.79704 0.20442 0.505882 1.95386 0.505882 4.11192Z"/>
</defs>
</svg>
