<svg width="18" height="18" viewBox="0 0 18 18" version="1.1" xmlns="http://www.w3.org/2000/svg" xmlns:xlink="http://www.w3.org/1999/xlink">
<title>Group 2</title>
<desc>Created using Figma</desc>
<g id="Canvas" transform="translate(634 11)">
<g id="Group 2">
<g id="Ellipse">
<use xlink:href="#path0_fill" transform="translate(-634 -11)" fill="#F55858"/>
</g>
<g id="Ellipse 2">
<use xlink:href="#path1_fill" transform="translate(-631.3 -8.3)" fill="#F55858"/>
<mask id="mask0_outline_ins">
<use xlink:href="#path1_fill" fill="white" transform="translate(-631.3 -8.3)"/>
</mask>
<g mask="url(#mask0_outline_ins)">
<use xlink:href="#path2_stroke_2x" transform="translate(-631.3 -8.3)" fill="#FFFFFF"/>
</g>
</g>
</g>
</g>
<defs>
<path id="path0_fill" d="M 18 9C 18 13.9706 13.9706 18 9 18C 4.02944 18 0 13.9706 0 9C 0 4.02944 4.02944 0 9 0C 13.9706 0 18 4.02944 18 9Z"/>
<path id="path1_fill" d="M 12.6 6.3C 12.6 9.77939 9.77939 12.6 6.3 12.6C 2.82061 12.6 0 9.77939 0 6.3C 0 2.82061 2.82061 0 6.3 0C 9.77939 0 12.6 2.82061 12.6 6.3Z"/>
<path id="path2_stroke_2x" d="M 11.6 6.3C 11.6 9.22711 9.22711 11.6 6.3 11.6L 6.3 13.6C 10.3317 13.6 13.6 10.3317 13.6 6.3L 11.6 6.3ZM 6.3 11.6C 3.37289 11.6 1 9.22711 1 6.3L -1 6.3C -1 10.3317 2.26832 13.6 6.3 13.6L 6.3 11.6ZM 1 6.3C 1 3.37289 3.37289 1 6.3 1L 6.3 -1C 2.26832 -1 -1 2.26832 -1 6.3L 1 6.3ZM 6.3 1C 9.22711 1 11.6 3.37289 11.6 6.3L 13.6 6.3C 13.6 2.26832 10.3317 -1 6.3 -1L 6.3 1Z"/>
</defs>
</svg>
